<svg xmlns="http://www.w3.org/2000/svg" viewBox="0 0 317.4 247.1"><path d="M314.2 87l-14.7 3.6c4.2 4.8 7.9 13 7.1 27-1.2 20.3-8.6 28.1-13.6 31.1l7.5 2.2c4 4.4-1.1 7.6-8.3 10-.1.1-.2.3-.4.4-8.9 5.5-8.7 22-7.4 31.5 31.9 9 20.5 12 20.5 12l-171.5 41.4-114-36.9s-16.3-2.1-18.1-32.9c-.9-16 4-24.4 8.9-28.8l-7-1.7s-11.5-3 20.5-12c1.3-9.5 1.5-26-7.4-31.5-.2-.1-.3-.2-.4-.4-7.3-2.3-12.3-5.6-8.4-10l14.2-4.3c-4.6-4.1-9.9-12.3-10.8-29.1C9.1 27.9 29 25 29 25L202.7.9 310 33.2c3.9 4.4-1.1 7.6-8.4 10l-.4.4c-8.9 5.5-8.7 22-7.4 31.5 31.9 9 20.4 11.9 20.4 11.9z" fill="#fff"/><path d="M293.7 75c-1.3-9.5-1.5-26 7.4-31.5.2-.1.3-.2.4-.4 7.3-2.3 12.3-5.6 8.4-10L202.7.9 29 25S9.1 27.8 10.9 58.7c1 16.8 6.2 25 10.8 29.1L7.5 92c-4 4.4 1.1 7.6 8.4 10 .1.1.2.3.4.4 8.9 5.5 8.7 22 7.4 31.5-31.9 9-20.5 12-20.5 12l7 1.7c-4.9 4.4-9.8 12.9-8.9 28.8 1.8 30.8 18.1 32.9 18.1 32.9l113.7 36.8 171.5-41.4s11.5-3-20.5-12c-1.3-9.5-1.5-26 7.4-31.5.2-.1.3-.2.4-.4 7.3-2.3 12.3-5.6 8.3-10l-7.5-2.2c5-3 12.5-10.8 13.6-31.1.8-14-2.8-22.1-7.1-27l14.7-3.6c.3.1 11.8-2.8-20.2-11.9zm-143.5-.4l28.8-5.9 97.5-20 14.5-3c-4.6 8.5-4.5 20.1-3.7 27.5.2 1.7.4 3.2.5 4.4l-15.9 3.9L149 112.1l1.2-37.5zm-123.9 30l14.5 3 93.6 19.2 8.2 1.7 24.5 5 1.2 37.5-126.4-31.4-12.5-3.1c.2-1.2.4-2.7.6-4.4.8-7.4 1-19-3.7-27.5zm-5.6-47.4c-.2-8.2 1.3-14.1 4.2-17.1 1.9-1.9 4.1-2.3 5.6-2.3.8 0 1.4.1 1.4.1l74.8 24.3L144 74.3l-1.2 37.8L38.2 82.8l-5.5-1.5c-.2-.1-.5-.1-.7-.1-.5-.1-10.8-1-11.3-24zm112.7 172.6L23.1 199c-.2-.1-.5-.1-.7-.1-.4 0-10.8-1-11.3-24-.2-8.2 1.3-14.1 4.2-17.1 1.9-1.9 4.1-2.3 5.6-2.3.8 0 1.4.1 1.4.1L134.6 192l-1.2 37.8zM277.9 191c.2 1.7.4 3.2.5 4.4l-138.9 34.5 1.2-37.5 29.7-6.1 4.4 1.1 16.4-5.3 75.8-15.5 14.5-3c-4.6 8.3-4.4 19.9-3.6 27.4zm18.9-75c-.5 23-10.9 23.9-11.2 24-.3 0-.5 0-.8.1l-10.5 2.9-99.8 27.9-1.2-37.8 32.7-10.7 79.3-25.8s4.2-.9 7.2 2.2 4.4 9.1 4.3 17.2z" fill="#313131"/></svg>