<svg xmlns="http://www.w3.org/2000/svg" width="700" height="600"><path d="M166.377 400.096l-5.211 4.969c-3.547-3.746-7.535-5.621-11.967-5.621-3.74 0-6.892 1.279-9.453 3.838-2.563 2.557-3.843 5.709-3.843 9.457 0 2.611.567 4.93 1.702 6.953 1.135 2.025 2.738 3.615 4.813 4.77s4.379 1.73 6.914 1.73c2.162 0 4.139-.402 5.93-1.211s3.758-2.277 5.904-4.41l5.052 5.271c-2.893 2.824-5.625 4.781-8.197 5.873-2.573 1.09-5.509 1.637-8.81 1.637-6.086 0-11.068-1.93-14.944-5.789-3.877-3.859-5.815-8.805-5.815-14.838 0-3.902.883-7.371 2.648-10.406 1.766-3.033 4.293-5.473 7.585-7.318 3.291-1.846 6.835-2.768 10.633-2.768 3.229 0 6.339.682 9.329 2.045a22.313 22.313 0 0 1 7.73 5.818zm39.177-7.864c5.54 0 10.302 2.004 14.288 6.014s5.979 8.898 5.979 14.666c0 5.713-1.967 10.547-5.899 14.504s-8.705 5.936-14.314 5.936c-5.877 0-10.76-2.031-14.648-6.096-3.888-4.063-5.832-8.889-5.832-14.479 0-3.742.905-7.186 2.717-10.326 1.811-3.141 4.301-5.629 7.471-7.465a20.068 20.068 0 0 1 10.238-2.754zm-.079 7.291c-3.625 0-6.67 1.26-9.139 3.779s-3.703 5.723-3.703 9.609c0 4.328 1.554 7.754 4.662 10.273 2.416 1.969 5.186 2.953 8.313 2.953 3.534 0 6.545-1.277 9.031-3.832s3.73-5.705 3.73-9.449c0-3.725-1.253-6.879-3.757-9.461-2.505-2.581-5.55-3.872-9.137-3.872zm53.488-6.306h7.558l15.058 39.15h-7.744l-3.063-8.064h-15.976l-3.185 8.064h-7.745l15.097-39.15zm3.826 10.379l-5.254 13.441h10.475l-5.221-13.441zm74.707-3.5l-5.212 4.969c-3.546-3.746-7.534-5.621-11.966-5.621-3.741 0-6.893 1.279-9.453 3.838-2.563 2.557-3.844 5.709-3.844 9.457 0 2.611.568 4.93 1.702 6.953 1.135 2.025 2.739 3.615 4.813 4.77s4.379 1.73 6.914 1.73c2.162 0 4.139-.402 5.93-1.211 1.79-.809 3.758-2.277 5.903-4.41l5.052 5.271c-2.893 2.824-5.625 4.781-8.197 5.873-2.572 1.09-5.509 1.637-8.809 1.637-6.086 0-11.068-1.93-14.945-5.789s-5.814-8.805-5.814-14.838c0-3.902.882-7.371 2.648-10.406 1.765-3.033 4.293-5.473 7.584-7.318s6.836-2.768 10.633-2.768c3.229 0 6.339.682 9.329 2.045a22.31 22.31 0 0 1 7.732 5.818zm20.666-6.879h7.559v14.771h13.068v-14.771h7.531v39.15h-7.531v-17.168h-13.068v17.168h-7.559v-39.15zm50.74 0h7.398v39.15h-7.398v-39.15zm29.982 0h7.148l16.751 25.762v-25.762h7.453v39.15h-7.17l-16.73-25.684v25.684h-7.452v-39.15zm90.609 6.387l-5.247 5.189c-3.322-3.512-7.193-5.27-11.615-5.27-3.854 0-7.081 1.277-9.683 3.834-2.602 2.555-3.902 5.66-3.902 9.314 0 3.779 1.35 6.982 4.05 9.607 2.699 2.627 6.029 3.939 9.991 3.939 2.575 0 4.747-.541 6.515-1.623s3.191-2.777 4.275-5.084h-11.338v-7h19.695l.053 1.65c0 3.424-.887 6.672-2.66 9.74-1.775 3.07-4.072 5.412-6.895 7.027-2.82 1.613-6.13 2.422-9.927 2.422-4.063 0-7.688-.883-10.872-2.648-3.186-1.766-5.705-4.279-7.559-7.545s-2.781-6.787-2.781-10.566c0-5.18 1.712-9.688 5.137-13.52 4.063-4.561 9.351-6.84 15.862-6.84 3.407 0 6.591.629 9.555 1.889 2.502 1.067 4.951 2.895 7.346 5.485z" fill="#82C8FF"/><path d="M116.969 275.826v18.09H89.294v80.258H66.479v-80.258H38.805v-18.09h78.164zM227.4 374.174h-17.685c-1.98 0-3.61-.461-4.894-1.385-1.283-.922-2.172-2.102-2.666-3.543l-5.805-17.145h-37.396l-5.806 17.145c-.449 1.26-1.327 2.396-2.632 3.408-1.306 1.014-2.902 1.52-4.792 1.52h-17.82l38.07-98.348h23.354l38.072 98.348zm-63.179-37.598h26.865l-9.045-26.934c-.586-1.709-1.271-3.723-2.059-6.041a152.817 152.817 0 0 1-2.329-7.525 134.354 134.354 0 0 1-2.228 7.627c-.766 2.34-1.484 4.365-2.16 6.076l-9.044 26.797zm114.21 4.725v32.873h-22.815v-98.348h34.695c6.93 0 12.881.82 17.854 2.463 4.973 1.645 9.067 3.904 12.285 6.785 3.217 2.879 5.591 6.277 7.121 10.191 1.529 3.916 2.295 8.146 2.295 12.689 0 4.906-.787 9.406-2.362 13.5-1.575 4.096-3.982 7.605-7.222 10.531s-7.348 5.209-12.319 6.852c-4.973 1.643-10.856 2.463-17.651 2.463h-11.881zm0-17.213h11.88c5.939 0 10.215-1.418 12.825-4.252 2.609-2.836 3.915-6.795 3.915-11.881 0-2.248-.338-4.297-1.013-6.143-.675-1.844-1.699-3.43-3.071-4.758-1.373-1.326-3.105-2.352-5.197-3.072-2.093-.719-4.58-1.078-7.459-1.078h-11.88v31.184zm163.619 50.086h-17.685c-1.98 0-3.611-.461-4.895-1.385-1.282-.922-2.171-2.102-2.666-3.543L411 352.102h-37.395l-5.806 17.145c-.45 1.26-1.327 2.396-2.632 3.408-1.307 1.014-2.902 1.52-4.793 1.52h-17.82l38.07-98.348h23.355l38.071 98.347zm-63.18-37.598h26.864l-9.045-26.934c-.585-1.709-1.271-3.723-2.059-6.041a152.855 152.855 0 0 1-2.328-7.525c-.721 2.744-1.463 5.287-2.229 7.627s-1.484 4.365-2.159 6.076l-9.044 26.797zm146.205-40.769c-.675 1.08-1.384 1.889-2.126 2.43-.743.539-1.699.809-2.869.809-1.035 0-2.149-.324-3.342-.979a795.807 795.807 0 0 0-4.049-2.193c-1.509-.811-3.23-1.541-5.164-2.193-1.936-.652-4.141-.979-6.615-.979-4.275 0-7.459.91-9.551 2.734-2.094 1.822-3.139 4.285-3.139 7.391 0 1.98.629 3.623 1.889 4.928s2.914 2.43 4.962 3.375 4.388 1.811 7.021 2.598c2.632.789 5.32 1.666 8.066 2.633a72.543 72.543 0 0 1 8.065 3.408 26.971 26.971 0 0 1 7.021 4.996c2.047 2.025 3.701 4.488 4.961 7.391s1.891 6.402 1.891 10.496c0 4.547-.789 8.799-2.363 12.758-1.576 3.961-3.859 7.414-6.852 10.361s-6.682 5.266-11.069 6.953-9.372 2.531-14.952 2.531c-3.061 0-6.176-.316-9.348-.945a55.788 55.788 0 0 1-9.215-2.666 53.377 53.377 0 0 1-8.369-4.084c-2.61-1.574-4.883-3.33-6.818-5.266l6.75-10.664c.495-.811 1.192-1.463 2.094-1.959a5.928 5.928 0 0 1 2.902-.742c1.35 0 2.71.43 4.084 1.283 1.371.855 2.924 1.801 4.656 2.834 1.732 1.037 3.724 1.982 5.975 2.836 2.25.855 4.904 1.283 7.965 1.283 4.14 0 7.357-.912 9.652-2.734s3.442-4.713 3.442-8.674c0-2.295-.63-4.162-1.89-5.602-1.261-1.441-2.914-2.633-4.961-3.578-2.049-.945-4.377-1.777-6.986-2.498a204.808 204.808 0 0 1-8.033-2.396 58.582 58.582 0 0 1-8.032-3.24 25.297 25.297 0 0 1-6.986-5.063c-2.048-2.092-3.702-4.701-4.961-7.83-1.261-3.127-1.89-6.986-1.89-11.576 0-3.689.742-7.289 2.227-10.799 1.485-3.51 3.668-6.637 6.548-9.383 2.88-2.744 6.413-4.938 10.598-6.582 4.185-1.641 8.978-2.463 14.378-2.463 3.014 0 5.95.236 8.809.709a46.397 46.397 0 0 1 8.133 2.092 44.654 44.654 0 0 1 7.189 3.309c2.228 1.281 4.219 2.732 5.974 4.354l-5.672 10.596zm-1.605-185.768c-.008.001-.015-.006-.019-.006a6.49 6.49 0 0 0-4.954-.221 6.538 6.538 0 0 0-3.701 3.395l-21.515 89.89c-.773 2.676-.076 5.242 2.312 6.368 10.099 4.734 26.04 14.734 32.021 32.402l36.005-79.831c.522-1.11.721-2.278.588-3.381-3.252-27.191-26.919-42.13-40.737-48.616zm62.642 136.357l55.504-74.03a6.46 6.46 0 0 0 .216-5.021 6.442 6.442 0 0 0-3.35-3.655l-.012-.009c-13.854-6.418-40.499-14.954-63.424.029-.933.605-1.698 1.514-2.219 2.623l-38.479 78.673c17.376-6.77 35.28-.981 45.395 3.709 2.4 1.112 4.897-.109 6.369-2.319z" fill="#0061D4"/><path fill="#0061D4" d="M648.328 192.987l-4.297-2.005-51.173 58.307c-4.731 5.265-10.124 8.741-16.24 5.921-8.569-3.983-23.482-8.9-37.909-4.096 19.283 3.836 36.24 15.106 45.531 22.313a4.774 4.774 0 0 0 4.073.886c1.254-.336 2.06-1.38 3.211-2.625l59.97-70.007c2.145-2.563.104-7.166-3.166-8.694zm-161.784 6.967l12.246-76.466-4.301-2.01c-3.271-1.524-8.183.203-8.691 3.167l-15.561 90.719c-.268 1.532-.392 3.092.048 4.149a4.786 4.786 0 0 0 3.291 2.558c11.508 2.48 31.031 8.225 46.358 20.546-5.582-14.145-18.933-22.41-27.493-26.426-6.092-2.862-6.928-9.563-5.897-16.237z"/><path fill="#FFB800" d="M612.605 147.887c-12.797-1.521-27.163-.055-40.673 8.31-2.255-15.562-10.216-27.428-19.462-36.229 8.592-14.641 27.08-20.617 42.786-13.293 15.662 7.302 22.971 25.252 17.349 41.212zm-.418-35.768a4 4 0 0 1-2.702-6.95l8.852-8.104a3.999 3.999 0 1 1 5.401 5.9l-8.851 8.104a3.987 3.987 0 0 1-2.7 1.05zm-59.385-2.712a3.987 3.987 0 0 1-2.945-1.293l-8.056-8.763a4 4 0 1 1 5.888-5.414l8.056 8.763a4 4 0 0 1-2.943 6.707zm30.261-10.889a4 4 0 0 1-3.999-4.177l.53-11.988c.098-2.206 1.978-3.926 4.173-3.819a4 4 0 0 1 3.819 4.173l-.53 11.988a4 4 0 0 1-3.993 3.823zm52.092 44.342a3.93 3.93 0 0 1-.188-.004l-11.892-.552a4.002 4.002 0 0 1-3.811-4.182 3.99 3.99 0 0 1 4.182-3.811l11.892.552a4.002 4.002 0 1 1-.183 7.997z"/></svg>