<svg id="Layer_1" xmlns="http://www.w3.org/2000/svg" viewBox="0 0 618.2 359.5"><style>.st1{fill:#0061d4}</style><g id="Layer_3"><path d="M129.9 323.9l-5.2 5c-3.5-3.7-7.5-5.6-12-5.6-3.7 0-6.9 1.3-9.5 3.8-2.6 2.6-3.8 5.7-3.8 9.5 0 2.6.6 4.9 1.7 7 1.1 2 2.7 3.6 4.8 4.8s4.4 1.7 6.9 1.7c2.2 0 4.1-.4 5.9-1.2s3.8-2.3 5.9-4.4l5.1 5.3c-2.9 2.8-5.6 4.8-8.2 5.9-2.6 1.1-5.5 1.6-8.8 1.6-6.1 0-11.1-1.9-14.9-5.8-3.9-3.9-5.8-8.8-5.8-14.8 0-3.9.9-7.4 2.6-10.4 1.8-3 4.3-5.5 7.6-7.3 3.3-1.8 6.8-2.8 10.6-2.8 3.2 0 6.3.7 9.3 2 3 1.2 5.6 3.2 7.8 5.7zm39.2-7.9c5.5 0 10.3 2 14.3 6s6 8.9 6 14.7c0 5.7-2 10.5-5.9 14.5s-8.7 5.9-14.3 5.9c-5.9 0-10.8-2-14.6-6.1-3.9-4.1-5.8-8.9-5.8-14.5 0-3.7.9-7.2 2.7-10.3 1.8-3.1 4.3-5.6 7.5-7.5 3-1.8 6.4-2.7 10.1-2.7zm-.1 7.3c-3.6 0-6.7 1.3-9.1 3.8s-3.7 5.7-3.7 9.6c0 4.3 1.6 7.8 4.7 10.3 2.4 2 5.2 3 8.3 3 3.5 0 6.5-1.3 9-3.8s3.7-5.7 3.7-9.4-1.3-6.9-3.8-9.5c-2.5-2.7-5.5-4-9.1-4zm53.5-6.3h7.6l15.1 39.1h-7.7l-3.1-8.1h-16l-3.2 8.1h-7.7l15-39.1zm3.8 10.4l-5.3 13.4h10.5l-5.2-13.4zm74.7-3.5l-5.2 5c-3.5-3.7-7.5-5.6-12-5.6-3.7 0-6.9 1.3-9.5 3.8-2.6 2.6-3.8 5.7-3.8 9.5 0 2.6.6 4.9 1.7 7 1.1 2 2.7 3.6 4.8 4.8s4.4 1.7 6.9 1.7c2.2 0 4.1-.4 5.9-1.2 1.8-.8 3.8-2.3 5.9-4.4l5.1 5.3c-2.9 2.8-5.6 4.8-8.2 5.9-2.6 1.1-5.5 1.6-8.8 1.6-6.1 0-11.1-1.9-14.9-5.8s-5.8-8.8-5.8-14.8c0-3.9.9-7.4 2.6-10.4 1.8-3 4.3-5.5 7.6-7.3s6.8-2.8 10.6-2.8c3.2 0 6.3.7 9.3 2 3.1 1.2 5.6 3.2 7.8 5.7zm20.7-6.9h7.6v14.8h13.1V317h7.5v39.1h-7.5V339h-13.1v17.2h-7.6V317zm50.7 0h7.4v39.1h-7.4V317zm30 0h7.1l16.8 25.8V317h7.5v39.1h-7.2l-16.7-25.7v25.7h-7.5V317zm90.6 6.4l-5.2 5.2c-3.3-3.5-7.2-5.3-11.6-5.3-3.9 0-7.1 1.3-9.7 3.8-2.6 2.6-3.9 5.7-3.9 9.3 0 3.8 1.4 7 4 9.6 2.7 2.6 6 3.9 10 3.9 2.6 0 4.7-.5 6.5-1.6s3.2-2.8 4.3-5.1H476v-7h19.7l.1 1.6c0 3.4-.9 6.7-2.7 9.7-1.8 3.1-4.1 5.4-6.9 7-2.8 1.6-6.1 2.4-9.9 2.4-4.1 0-7.7-.9-10.9-2.6-3.2-1.8-5.7-4.3-7.6-7.5-1.9-3.3-2.8-6.8-2.8-10.6 0-5.2 1.7-9.7 5.1-13.5 4.1-4.6 9.4-6.8 15.9-6.8 3.4 0 6.6.6 9.6 1.9 2.6 1.2 5 3 7.4 5.6z" fill="#82c8ff"/><path class="st1" d="M80.5 199.6v18.1H52.8V298H30v-80.3H2.3v-18.1h78.2zM190.9 298h-17.7c-2 0-3.6-.5-4.9-1.4-1.3-.9-2.2-2.1-2.7-3.5l-5.8-17.1h-37.4l-5.8 17.1c-.4 1.3-1.3 2.4-2.6 3.4s-2.9 1.5-4.8 1.5H91.4l38.1-98.3h23.4l38 98.3zm-63.2-37.6h26.9l-9-26.9c-.6-1.7-1.3-3.7-2.1-6s-1.6-4.8-2.3-7.5c-.7 2.7-1.5 5.3-2.2 7.6-.8 2.3-1.5 4.4-2.2 6.1l-9.1 26.7zm114.2 4.7V298h-22.8v-98.3h34.7c6.9 0 12.9.8 17.9 2.5 5 1.6 9.1 3.9 12.3 6.8 3.2 2.9 5.6 6.3 7.1 10.2 1.5 3.9 2.3 8.1 2.3 12.7 0 4.9-.8 9.4-2.4 13.5-1.6 4.1-4 7.6-7.2 10.5s-7.3 5.2-12.3 6.9c-5 1.6-10.9 2.5-17.7 2.5l-11.9-.2zm0-17.2h11.9c5.9 0 10.2-1.4 12.8-4.3 2.6-2.8 3.9-6.8 3.9-11.9 0-2.2-.3-4.3-1-6.1-.7-1.8-1.7-3.4-3.1-4.8-1.4-1.3-3.1-2.4-5.2-3.1-2.1-.7-4.6-1.1-7.5-1.1h-11.9v31.3zM405.6 298h-17.7c-2 0-3.6-.5-4.9-1.4-1.3-.9-2.2-2.1-2.7-3.5l-5.8-17.1h-37.4l-5.8 17.1c-.5 1.3-1.3 2.4-2.6 3.4s-2.9 1.5-4.8 1.5h-17.8l38.1-98.3h23.4l38 98.3zm-63.2-37.6h26.9l-9-26.9c-.6-1.7-1.3-3.7-2.1-6s-1.6-4.8-2.3-7.5c-.7 2.7-1.5 5.3-2.2 7.6s-1.5 4.4-2.2 6.1l-9.1 26.7zm146.2-40.8c-.7 1.1-1.4 1.9-2.1 2.4-.7.5-1.7.8-2.9.8-1 0-2.1-.3-3.3-1-1.2-.6-2.5-1.4-4-2.2-1.5-.8-3.2-1.5-5.2-2.2-1.9-.7-4.1-1-6.6-1-4.3 0-7.5.9-9.6 2.7-2.1 1.8-3.1 4.3-3.1 7.4 0 2 .6 3.6 1.9 4.9s2.9 2.4 5 3.4 4.4 1.8 7 2.6c2.6.8 5.3 1.7 8.1 2.6 2.7 1 5.4 2.1 8.1 3.4 2.6 1.3 5 3 7 5s3.7 4.5 5 7.4 1.9 6.4 1.9 10.5c0 4.5-.8 8.8-2.4 12.8-1.6 4-3.9 7.4-6.9 10.4s-6.7 5.3-11.1 7-9.4 2.5-15 2.5c-3.1 0-6.2-.3-9.3-.9-3.2-.6-6.2-1.5-9.2-2.7-3-1.1-5.8-2.5-8.4-4.1-2.6-1.6-4.9-3.3-6.8-5.3l6.8-10.7c.5-.8 1.2-1.5 2.1-2 .9-.5 1.9-.7 2.9-.7 1.4 0 2.7.4 4.1 1.3 1.4.9 2.9 1.8 4.7 2.8 1.7 1 3.7 2 6 2.8 2.2.9 4.9 1.3 8 1.3 4.1 0 7.4-.9 9.7-2.7s3.4-4.7 3.4-8.7c0-2.3-.6-4.2-1.9-5.6-1.3-1.4-2.9-2.6-5-3.6-2-.9-4.4-1.8-7-2.5-2.6-.7-5.3-1.5-8-2.4-2.7-.9-5.4-2-8-3.2-2.6-1.3-4.9-3-7-5.1-2-2.1-3.7-4.7-5-7.8-1.3-3.1-1.9-7-1.9-11.6 0-3.7.7-7.3 2.2-10.8s3.7-6.6 6.5-9.4c2.9-2.7 6.4-4.9 10.6-6.6 4.2-1.6 9-2.5 14.4-2.5 3 0 6 .2 8.8.7 2.9.5 5.6 1.2 8.1 2.1 2.6.9 5 2 7.2 3.3 2.2 1.3 4.2 2.7 6 4.4l-5.8 10.8zM487 33.8c-1.6-.7-3.3-.8-5-.2-1.6.6-3 1.8-3.7 3.4l-21.5 89.9c-.8 2.7-.1 5.2 2.3 6.4 10.1 4.7 26 14.7 32 32.4l36-79.8c.5-1.1.7-2.3.6-3.4-3.2-27.2-26.9-42.2-40.7-48.7zm62.6 136.4l55.5-74c.7-1.6.8-3.4.2-5-.6-1.6-1.8-2.9-3.3-3.7-13.9-6.4-40.5-15-63.4 0-.9.6-1.7 1.5-2.2 2.6l-38.5 78.7c17.4-6.8 35.3-1 45.4 3.7 2.3 1.1 4.8-.1 6.3-2.3z"/><path class="st1" d="M611.8 116.8l-4.3-2-51.2 58.3c-4.7 5.3-10.1 8.7-16.2 5.9-8.6-4-23.5-8.9-37.9-4.1 19.3 3.8 36.2 15.1 45.5 22.3 1.2.9 2.7 1.2 4.1.9 1.3-.3 2.1-1.4 3.2-2.6l60-70c2.1-2.6.1-7.2-3.2-8.7zm-161.7 6.9l12.2-76.5-4.3-2c-3.3-1.5-8.2.2-8.7 3.2l-15.6 90.7c-.3 1.5-.4 3.1 0 4.1.7 1.3 1.8 2.2 3.3 2.6 11.5 2.5 31 8.2 46.4 20.5-5.6-14.1-18.9-22.4-27.5-26.4-6-2.8-6.9-9.5-5.8-16.2z"/><path d="M576.1 71.7c-12.8-1.5-27.2-.1-40.7 8.3-2.3-15.6-10.2-27.4-19.5-36.2 8.6-14.6 27.1-20.6 42.8-13.3 15.7 7.3 23 25.2 17.4 41.2zm-.4-35.8c-1.1 0-2.2-.4-3-1.3-1.5-1.6-1.4-4.2.2-5.7l8.9-8.1c1.6-1.5 4.2-1.4 5.7.2 1.5 1.6 1.4 4.2-.2 5.7l-8.9 8.1c-.8.8-1.7 1.1-2.7 1.1zm-59.4-2.7c-1.1 0-2.2-.4-2.9-1.3l-8.1-8.8c-1.5-1.6-1.4-4.2.2-5.7 1.6-1.5 4.2-1.4 5.7.2l8.1 8.8c1.5 1.6 1.4 4.2-.2 5.7-.9.8-1.8 1.1-2.8 1.1zm30.3-10.9h-.2c-2.2-.1-3.9-2-3.8-4.2l.5-12c.1-2.2 2-3.9 4.2-3.8 2.2.1 3.9 2 3.8 4.2l-.5 12c-.1 2.1-1.9 3.8-4 3.8zm52.1 44.4h-.2l-11.9-.6c-2.2-.1-3.9-2-3.8-4.2.1-2.2 2-3.9 4.2-3.8l11.9.6c2.2.1 3.9 2 3.8 4.2-.1 2.1-1.9 3.8-4 3.8z" fill="#ffb800"/></g></svg>