<?xml version="1.0" encoding="utf-8"?>
<!-- Generator: Adobe Illustrator 21.1.0, SVG Export Plug-In . SVG Version: 6.00 Build 0)  -->
<svg version="1.1" id="Layer_1" xmlns="http://www.w3.org/2000/svg" xmlns:xlink="http://www.w3.org/1999/xlink" x="0px" y="0px"
	 viewBox="0 0 317.4 247.1" style="enable-background:new 0 0 317.4 247.1;" xml:space="preserve">
<style type="text/css">
	.st0{fill:#FFFFFF;}
	.st1{fill:#313131;}
</style>
<g>
	<path class="st0" d="M314.2,87l-14.7,3.6c4.2,4.8,7.9,13,7.1,27c-1.2,20.3-8.6,28.1-13.6,31.1l7.5,2.2c4,4.4-1.1,7.6-8.3,10
		c-0.1,0.1-0.2,0.3-0.4,0.4c-8.9,5.5-8.7,22-7.4,31.5c31.9,9,20.5,12,20.5,12l-171.5,41.4L19.4,209.3c0,0-16.3-2.1-18.1-32.9
		c-0.9-16,4-24.4,8.9-28.8l-7-1.7c0,0-11.5-3,20.5-12c1.3-9.5,1.5-26-7.4-31.5c-0.2-0.1-0.3-0.2-0.4-0.4c-7.3-2.3-12.3-5.6-8.4-10
		l14.2-4.3c-4.6-4.1-9.9-12.3-10.8-29.1C9.1,27.9,29,25,29,25L202.7,0.9L310,33.2c3.9,4.4-1.1,7.6-8.4,10c-0.1,0.1-0.3,0.3-0.4,0.4
		c-8.9,5.5-8.7,22-7.4,31.5C325.7,84.1,314.2,87,314.2,87z"/>
</g>
<g>
	<path class="st1" d="M293.7,75c-1.3-9.5-1.5-26,7.4-31.5c0.2-0.1,0.3-0.2,0.4-0.4c7.3-2.3,12.3-5.6,8.4-10L202.7,0.9L29,25
		c0,0-19.9,2.8-18.1,33.7c1,16.8,6.2,25,10.8,29.1L7.5,92c-4,4.4,1.1,7.6,8.4,10c0.1,0.1,0.2,0.3,0.4,0.4c8.9,5.5,8.7,22,7.4,31.5
		c-31.9,9-20.5,12-20.5,12l7,1.7c-4.9,4.4-9.8,12.9-8.9,28.8c1.8,30.8,18.1,32.9,18.1,32.9l113.7,36.8l171.5-41.4
		c0,0,11.5-3-20.5-12c-1.3-9.5-1.5-26,7.4-31.5c0.2-0.1,0.3-0.2,0.4-0.4c7.3-2.3,12.3-5.6,8.3-10l-7.5-2.2c5-3,12.5-10.8,13.6-31.1
		c0.8-14-2.8-22.1-7.1-27l14.7-3.6C314.2,87,325.7,84.1,293.7,75z M150.2,74.6l28.8-5.9l97.5-20l14.5-3c-4.6,8.5-4.5,20.1-3.7,27.5
		c0.2,1.7,0.4,3.2,0.5,4.4l-15.9,3.9L149,112.1L150.2,74.6z M26.3,104.6l14.5,3l93.6,19.2l8.2,1.7l24.5,5l1.2,37.5L41.9,139.6
		l-12.5-3.1c0.2-1.2,0.4-2.7,0.6-4.4C30.8,124.7,31,113.1,26.3,104.6z M20.7,57.2C20.5,49,22,43.1,24.9,40.1
		c1.9-1.9,4.1-2.3,5.6-2.3c0.8,0,1.4,0.1,1.4,0.1l74.8,24.3l37.3,12.1l-1.2,37.8L38.2,82.8l-5.5-1.5c-0.2-0.1-0.5-0.1-0.7-0.1
		C31.5,81.1,21.2,80.2,20.7,57.2z M133.4,229.8L23.1,199c-0.2-0.1-0.5-0.1-0.7-0.1c-0.4,0-10.8-1-11.3-24
		c-0.2-8.2,1.3-14.1,4.2-17.1c1.9-1.9,4.1-2.3,5.6-2.3c0.8,0,1.4,0.1,1.4,0.1L134.6,192L133.4,229.8z M277.9,191
		c0.2,1.7,0.4,3.2,0.5,4.4l-138.9,34.5l1.2-37.5l29.7-6.1l4.4,1.1l16.4-5.3l75.8-15.5l14.5-3C276.9,171.9,277.1,183.5,277.9,191z
		 M296.8,116c-0.5,23-10.9,23.9-11.2,24c-0.3,0-0.5,0-0.8,0.1l-10.5,2.9l-99.8,27.9l-1.2-37.8l32.7-10.7l79.3-25.8
		c0,0,4.2-0.9,7.2,2.2C295.5,101.9,296.9,107.9,296.8,116z"/>
</g>
</svg>
