<?xml version="1.0" encoding="utf-8"?>
<!-- Generator: Adobe Illustrator 16.0.0, SVG Export Plug-In . SVG Version: 6.00 Build 0)  -->
<!DOCTYPE svg PUBLIC "-//W3C//DTD SVG 1.1//EN" "http://www.w3.org/Graphics/SVG/1.1/DTD/svg11.dtd">
<svg version="1.1" xmlns="http://www.w3.org/2000/svg" xmlns:xlink="http://www.w3.org/1999/xlink" x="0px" y="0px" width="700px"
	 height="600px" viewBox="0 0 700 600" enable-background="new 0 0 700 600" xml:space="preserve">
<g id="Layer_2">
</g>
<g id="Layer_3">
	<g>
		<path fill="#82C8FF" d="M166.377,400.096l-5.211,4.969c-3.547-3.746-7.535-5.621-11.967-5.621c-3.74,0-6.892,1.279-9.453,3.838
			c-2.563,2.557-3.843,5.709-3.843,9.457c0,2.611,0.567,4.93,1.702,6.953c1.135,2.025,2.738,3.615,4.813,4.77s4.379,1.73,6.914,1.73
			c2.162,0,4.139-0.402,5.93-1.211s3.758-2.277,5.904-4.41l5.052,5.271c-2.893,2.824-5.625,4.781-8.197,5.873
			c-2.573,1.09-5.509,1.637-8.81,1.637c-6.086,0-11.068-1.93-14.944-5.789c-3.877-3.859-5.815-8.805-5.815-14.838
			c0-3.902,0.883-7.371,2.648-10.406c1.766-3.033,4.293-5.473,7.585-7.318c3.291-1.846,6.835-2.768,10.633-2.768
			c3.229,0,6.339,0.682,9.329,2.045C161.635,395.641,164.213,397.582,166.377,400.096z"/>
		<path fill="#82C8FF" d="M205.554,392.232c5.54,0,10.302,2.004,14.288,6.014s5.979,8.898,5.979,14.666
			c0,5.713-1.967,10.547-5.899,14.504s-8.705,5.936-14.314,5.936c-5.877,0-10.76-2.031-14.648-6.096
			c-3.888-4.063-5.832-8.889-5.832-14.479c0-3.742,0.905-7.186,2.717-10.326c1.811-3.141,4.301-5.629,7.471-7.465
			C198.482,393.15,201.896,392.232,205.554,392.232z M205.475,399.523c-3.625,0-6.67,1.26-9.139,3.779s-3.703,5.723-3.703,9.609
			c0,4.328,1.554,7.754,4.662,10.273c2.416,1.969,5.186,2.953,8.313,2.953c3.534,0,6.545-1.277,9.031-3.832s3.73-5.705,3.73-9.449
			c0-3.725-1.253-6.879-3.757-9.461C212.107,400.814,209.062,399.523,205.475,399.523z"/>
		<path fill="#82C8FF" d="M258.963,393.217h7.558l15.058,39.15h-7.744l-3.063-8.064h-15.976l-3.185,8.064h-7.745L258.963,393.217z
			 M262.789,403.596l-5.254,13.441h10.475L262.789,403.596z"/>
		<path fill="#82C8FF" d="M337.496,400.096l-5.212,4.969c-3.546-3.746-7.534-5.621-11.966-5.621c-3.741,0-6.893,1.279-9.453,3.838
			c-2.563,2.557-3.844,5.709-3.844,9.457c0,2.611,0.568,4.93,1.702,6.953c1.135,2.025,2.739,3.615,4.813,4.77s4.379,1.73,6.914,1.73
			c2.162,0,4.139-0.402,5.93-1.211c1.79-0.809,3.758-2.277,5.903-4.41l5.052,5.271c-2.893,2.824-5.625,4.781-8.197,5.873
			c-2.572,1.09-5.509,1.637-8.809,1.637c-6.086,0-11.068-1.93-14.945-5.789s-5.814-8.805-5.814-14.838
			c0-3.902,0.882-7.371,2.648-10.406c1.765-3.033,4.293-5.473,7.584-7.318s6.836-2.768,10.633-2.768
			c3.229,0,6.339,0.682,9.329,2.045C332.754,395.641,335.331,397.582,337.496,400.096z"/>
		<path fill="#82C8FF" d="M358.162,393.217h7.559v14.771h13.068v-14.771h7.531v39.15h-7.531v-17.168h-13.068v17.168h-7.559V393.217z
			"/>
		<path fill="#82C8FF" d="M408.902,393.217h7.398v39.15h-7.398V393.217z"/>
		<path fill="#82C8FF" d="M438.884,393.217h7.148l16.751,25.762v-25.762h7.453v39.15h-7.17l-16.73-25.684v25.684h-7.452V393.217z"/>
		<path fill="#82C8FF" d="M529.493,399.604l-5.247,5.189c-3.322-3.512-7.193-5.27-11.615-5.27c-3.854,0-7.081,1.277-9.683,3.834
			c-2.602,2.555-3.902,5.66-3.902,9.314c0,3.779,1.35,6.982,4.05,9.607c2.699,2.627,6.029,3.939,9.991,3.939
			c2.575,0,4.747-0.541,6.515-1.623s3.191-2.777,4.275-5.084h-11.338v-7h19.695l0.053,1.65c0,3.424-0.887,6.672-2.66,9.74
			c-1.775,3.07-4.072,5.412-6.895,7.027c-2.82,1.613-6.13,2.422-9.927,2.422c-4.063,0-7.688-0.883-10.872-2.648
			c-3.186-1.766-5.705-4.279-7.559-7.545c-1.854-3.266-2.781-6.787-2.781-10.566c0-5.18,1.712-9.688,5.137-13.52
			c4.063-4.561,9.351-6.84,15.862-6.84c3.407,0,6.591,0.629,9.555,1.889C524.649,395.186,527.098,397.014,529.493,399.604z"/>
	</g>
	<g>
		<g>
			<path fill="#0061D4" d="M116.969,275.826v18.09H89.294v80.258H66.479v-80.258H38.805v-18.09H116.969z"/>
			<path fill="#0061D4" d="M227.4,374.174h-17.685c-1.98,0-3.61-0.461-4.894-1.385c-1.283-0.922-2.172-2.102-2.666-3.543
				l-5.805-17.145h-37.396l-5.806,17.145c-0.449,1.26-1.327,2.396-2.632,3.408c-1.306,1.014-2.902,1.52-4.792,1.52h-17.82
				l38.07-98.348h23.354L227.4,374.174z M164.221,336.576h26.865l-9.045-26.934c-0.586-1.709-1.271-3.723-2.059-6.041
				c-0.788-2.316-1.564-4.826-2.329-7.525c-0.72,2.744-1.463,5.287-2.228,7.627c-0.766,2.34-1.484,4.365-2.16,6.076L164.221,336.576
				z"/>
			<path fill="#0061D4" d="M278.431,341.301v32.873h-22.815v-98.348h34.695c6.93,0,12.881,0.82,17.854,2.463
				c4.973,1.645,9.067,3.904,12.285,6.785c3.217,2.879,5.591,6.277,7.121,10.191c1.529,3.916,2.295,8.146,2.295,12.689
				c0,4.906-0.787,9.406-2.362,13.5c-1.575,4.096-3.982,7.605-7.222,10.531c-3.24,2.926-7.348,5.209-12.319,6.852
				c-4.973,1.643-10.856,2.463-17.651,2.463H278.431z M278.431,324.088h11.88c5.939,0,10.215-1.418,12.825-4.252
				c2.609-2.836,3.915-6.795,3.915-11.881c0-2.248-0.338-4.297-1.013-6.143c-0.675-1.844-1.699-3.43-3.071-4.758
				c-1.373-1.326-3.105-2.352-5.197-3.072c-2.093-0.719-4.58-1.078-7.459-1.078h-11.88V324.088z"/>
			<path fill="#0061D4" d="M442.05,374.174h-17.685c-1.98,0-3.611-0.461-4.895-1.385c-1.282-0.922-2.171-2.102-2.666-3.543
				L411,352.102h-37.395l-5.806,17.145c-0.45,1.26-1.327,2.396-2.632,3.408c-1.307,1.014-2.902,1.52-4.793,1.52h-17.82l38.07-98.348
				h23.355L442.05,374.174z M378.87,336.576h26.864l-9.045-26.934c-0.585-1.709-1.271-3.723-2.059-6.041
				c-0.787-2.316-1.564-4.826-2.328-7.525c-0.721,2.744-1.463,5.287-2.229,7.627s-1.484,4.365-2.159,6.076L378.87,336.576z"/>
			<path fill="#0061D4" d="M525.075,295.807c-0.675,1.08-1.384,1.889-2.126,2.43c-0.743,0.539-1.699,0.809-2.869,0.809
				c-1.035,0-2.149-0.324-3.342-0.979c-1.192-0.65-2.543-1.383-4.049-2.193c-1.509-0.811-3.23-1.541-5.164-2.193
				c-1.936-0.652-4.141-0.979-6.615-0.979c-4.275,0-7.459,0.91-9.551,2.734c-2.094,1.822-3.139,4.285-3.139,7.391
				c0,1.98,0.629,3.623,1.889,4.928s2.914,2.43,4.962,3.375s4.388,1.811,7.021,2.598c2.632,0.789,5.32,1.666,8.066,2.633
				c2.744,0.969,5.434,2.104,8.065,3.408c2.633,1.307,4.972,2.971,7.021,4.996c2.047,2.025,3.701,4.488,4.961,7.391
				s1.891,6.402,1.891,10.496c0,4.547-0.789,8.799-2.363,12.758c-1.576,3.961-3.859,7.414-6.852,10.361s-6.682,5.266-11.069,6.953
				s-9.372,2.531-14.952,2.531c-3.061,0-6.176-0.316-9.348-0.945c-3.173-0.631-6.244-1.52-9.215-2.666
				c-2.969-1.148-5.76-2.508-8.369-4.084c-2.61-1.574-4.883-3.33-6.818-5.266l6.75-10.664c0.495-0.811,1.192-1.463,2.094-1.959
				c0.898-0.494,1.866-0.742,2.902-0.742c1.35,0,2.71,0.43,4.084,1.283c1.371,0.855,2.924,1.801,4.656,2.834
				c1.732,1.037,3.724,1.982,5.975,2.836c2.25,0.855,4.904,1.283,7.965,1.283c4.14,0,7.357-0.912,9.652-2.734
				s3.442-4.713,3.442-8.674c0-2.295-0.63-4.162-1.89-5.602c-1.261-1.441-2.914-2.633-4.961-3.578
				c-2.049-0.945-4.377-1.777-6.986-2.498c-2.611-0.719-5.289-1.518-8.033-2.396c-2.745-0.877-5.423-1.957-8.032-3.24
				c-2.61-1.281-4.938-2.969-6.986-5.063c-2.048-2.092-3.702-4.701-4.961-7.83c-1.261-3.127-1.89-6.986-1.89-11.576
				c0-3.689,0.742-7.289,2.227-10.799c1.485-3.51,3.668-6.637,6.548-9.383c2.88-2.744,6.413-4.938,10.598-6.582
				c4.185-1.641,8.978-2.463,14.378-2.463c3.014,0,5.95,0.236,8.809,0.709c2.857,0.473,5.568,1.17,8.133,2.092
				c2.565,0.924,4.962,2.025,7.189,3.309c2.228,1.281,4.219,2.732,5.974,4.354L525.075,295.807z"/>
		</g>
	</g>
	<g>
		<g>
			<g>
				<path fill="#0061D4" d="M523.47,110.039c-0.008,0.001-0.015-0.006-0.019-0.006c-1.566-0.729-3.322-0.803-4.954-0.221
					c-1.644,0.6-2.966,1.814-3.701,3.395l-21.515,89.89c-0.773,2.676-0.076,5.242,2.312,6.368
					c10.099,4.734,26.04,14.734,32.021,32.402l36.005-79.831c0.522-1.11,0.721-2.278,0.588-3.381
					C560.955,131.464,537.288,116.525,523.47,110.039z"/>
			</g>
		</g>
		<g>
			<g>
				<path fill="#0061D4" d="M586.112,246.396l55.504-74.03c0.74-1.584,0.831-3.373,0.216-5.021c-0.592-1.625-1.783-2.924-3.35-3.655
					l-0.012-0.009c-13.854-6.418-40.499-14.954-63.424,0.029c-0.933,0.605-1.698,1.514-2.219,2.623l-38.479,78.673
					c17.376-6.77,35.28-0.981,45.395,3.709C582.143,249.827,584.64,248.606,586.112,246.396z"/>
			</g>
		</g>
		<g>
			<g>
				<path fill="#0061D4" d="M648.328,192.987l-4.297-2.005l-51.173,58.307c-4.731,5.265-10.124,8.741-16.24,5.921
					c-8.569-3.983-23.482-8.9-37.909-4.096c19.283,3.836,36.24,15.106,45.531,22.313c1.166,0.91,2.654,1.228,4.073,0.886
					c1.254-0.336,2.06-1.38,3.211-2.625l59.97-70.007C653.639,199.118,651.598,194.515,648.328,192.987z"/>
			</g>
		</g>
		<g>
			<g>
				<path fill="#0061D4" d="M486.544,199.954l12.246-76.466l-4.301-2.01c-3.271-1.524-8.183,0.203-8.691,3.167l-15.561,90.719
					c-0.268,1.532-0.392,3.092,0.048,4.149c0.655,1.31,1.846,2.247,3.291,2.558c11.508,2.48,31.031,8.225,46.358,20.546
					c-5.582-14.145-18.933-22.41-27.493-26.426C486.349,213.329,485.513,206.628,486.544,199.954z"/>
			</g>
		</g>
	</g>
	<g>
		<path fill="#FFB800" d="M612.605,147.887c-12.797-1.521-27.163-0.055-40.673,8.31c-2.255-15.562-10.216-27.428-19.462-36.229
			c8.592-14.641,27.08-20.617,42.786-13.293C610.918,113.977,618.227,131.927,612.605,147.887z"/>
	</g>
	<g>
		<path fill="#FFB800" d="M612.187,112.119c-1.083,0-2.162-0.438-2.951-1.299c-1.492-1.629-1.38-4.159,0.249-5.651l8.852-8.104
			c1.628-1.492,4.159-1.38,5.65,0.249c1.492,1.629,1.38,4.159-0.249,5.651l-8.851,8.104
			C614.119,111.772,613.151,112.119,612.187,112.119z"/>
	</g>
	<g>
		<path fill="#FFB800" d="M552.802,109.407c-1.08,0-2.157-0.435-2.945-1.293l-8.056-8.763c-1.495-1.626-1.389-4.156,0.237-5.651
			c1.627-1.496,4.157-1.39,5.651,0.237l8.056,8.763c1.495,1.626,1.389,4.156-0.237,5.651
			C554.739,109.059,553.77,109.407,552.802,109.407z"/>
	</g>
	<g>
		<path fill="#FFB800" d="M583.063,98.518c-0.06,0-0.119-0.001-0.18-0.004c-2.207-0.098-3.917-1.966-3.819-4.173l0.53-11.988
			c0.098-2.206,1.978-3.926,4.173-3.819c2.207,0.098,3.917,1.966,3.819,4.173l-0.53,11.988
			C586.961,96.841,585.19,98.518,583.063,98.518z"/>
	</g>
	<g>
		<path fill="#FFB800" d="M635.155,142.86c-0.063,0-0.125-0.001-0.188-0.004l-11.892-0.552c-2.207-0.103-3.912-1.975-3.811-4.182
			c0.103-2.207,1.955-3.913,4.182-3.811l11.892,0.552c2.207,0.103,3.912,1.975,3.811,4.182
			C639.049,141.189,637.279,142.86,635.155,142.86z"/>
	</g>
</g>
<g id="Layer_4" display="none">
	<g display="inline">
		<path fill="#FFB800" d="M-1459.493,28.184c2.103-0.901,2.488-3.082,1.588-5.182l-4.073-9.509
			c-0.901-2.104-2.746-3.327-4.848-2.427c-2.1,0.899-2.488,3.08-1.588,5.184l4.074,9.508
			C-1463.439,27.859-1461.593,29.083-1459.493,28.184z"/>
		<path fill="#FFB800" d="M-1424.345,26.761c0.976-0.418,1.789-1.206,2.216-2.266l3.845-9.607c0.849-2.12-0.185-4.53-2.307-5.383
			c-2.123-0.848-4.531,0.184-5.38,2.305l-3.843,9.61c-0.852,2.12,0.18,4.529,2.303,5.38
			C-1426.45,27.223-1425.316,27.177-1424.345,26.761z"/>
		<path fill="#FFB800" d="M-1394.276,37.138l-9.512,4.075c-2.1,0.899-2.54,4.58-1.637,6.685c0.899,2.101,3.87,4.326,5.969,3.427
			l9.512-4.075c2.102-0.9,2.539-4.585,1.64-6.686C-1389.207,38.458-1392.174,36.237-1394.276,37.138z"/>
		<path fill="#FFB800" d="M-1484.005,51.004c1.06,0.424,2.193,0.378,3.166-0.038c0.976-0.418,1.789-1.206,2.215-2.267
			c0.849-2.125-0.184-4.534-2.305-5.38l-9.607-3.848c-2.122-0.849-4.533,0.185-5.382,2.305c-0.848,2.126,0.185,4.534,2.306,5.383
			L-1484.005,51.004z"/>
		<path fill="#FFB800" d="M-1410.841,49.398c1.184,2.761,1.964,5.575,2.38,8.392c-2.443,0.756-4.918,1.658-7.353,2.701
			c-11.395,4.882-20.421,12.24-26.914,21.841c-8.539-13.048-20.574-20.386-32.545-24.468c1.619-11.25,8.909-21.399,20.114-26.2
			C-1438.021,24.322-1418.184,32.258-1410.841,49.398z"/>
	</g>
</g>
</svg>
