<?xml version="1.0" encoding="utf-8"?>
<!-- Generator: Adobe Illustrator 21.1.0, SVG Export Plug-In . SVG Version: 6.00 Build 0)  -->
<svg version="1.1" id="Layer_1" xmlns="http://www.w3.org/2000/svg" xmlns:xlink="http://www.w3.org/1999/xlink" x="0px" y="0px"
	 viewBox="0 0 618.2 359.5" style="enable-background:new 0 0 618.2 359.5;" xml:space="preserve">
<style type="text/css">
	.st0{fill:#82C8FF;}
	.st1{fill:#0061D4;}
	.st2{fill:#FFB800;}
	.st3{display:none;}
	.st4{display:inline;}
</style>
<g id="Layer_2">
</g>
<g id="Layer_3">
	<g>
		<path class="st0" d="M129.9,323.9l-5.2,5c-3.5-3.7-7.5-5.6-12-5.6c-3.7,0-6.9,1.3-9.5,3.8c-2.6,2.6-3.8,5.7-3.8,9.5
			c0,2.6,0.6,4.9,1.7,7c1.1,2,2.7,3.6,4.8,4.8s4.4,1.7,6.9,1.7c2.2,0,4.1-0.4,5.9-1.2s3.8-2.3,5.9-4.4l5.1,5.3
			c-2.9,2.8-5.6,4.8-8.2,5.9c-2.6,1.1-5.5,1.6-8.8,1.6c-6.1,0-11.1-1.9-14.9-5.8c-3.9-3.9-5.8-8.8-5.8-14.8c0-3.9,0.9-7.4,2.6-10.4
			c1.8-3,4.3-5.5,7.6-7.3c3.3-1.8,6.8-2.8,10.6-2.8c3.2,0,6.3,0.7,9.3,2C125.1,319.4,127.7,321.4,129.9,323.9z"/>
		<path class="st0" d="M169.1,316c5.5,0,10.3,2,14.3,6s6,8.9,6,14.7c0,5.7-2,10.5-5.9,14.5s-8.7,5.9-14.3,5.9
			c-5.9,0-10.8-2-14.6-6.1c-3.9-4.1-5.8-8.9-5.8-14.5c0-3.7,0.9-7.2,2.7-10.3c1.8-3.1,4.3-5.6,7.5-7.5
			C162,316.9,165.4,316,169.1,316z M169,323.3c-3.6,0-6.7,1.3-9.1,3.8s-3.7,5.7-3.7,9.6c0,4.3,1.6,7.8,4.7,10.3c2.4,2,5.2,3,8.3,3
			c3.5,0,6.5-1.3,9-3.8s3.7-5.7,3.7-9.4c0-3.7-1.3-6.9-3.8-9.5C175.6,324.6,172.6,323.3,169,323.3z"/>
		<path class="st0" d="M222.5,317h7.6l15.1,39.1h-7.7l-3.1-8.1h-16l-3.2,8.1h-7.7L222.5,317z M226.3,327.4l-5.3,13.4h10.5
			L226.3,327.4z"/>
		<path class="st0" d="M301,323.9l-5.2,5c-3.5-3.7-7.5-5.6-12-5.6c-3.7,0-6.9,1.3-9.5,3.8c-2.6,2.6-3.8,5.7-3.8,9.5
			c0,2.6,0.6,4.9,1.7,7c1.1,2,2.7,3.6,4.8,4.8s4.4,1.7,6.9,1.7c2.2,0,4.1-0.4,5.9-1.2c1.8-0.8,3.8-2.3,5.9-4.4l5.1,5.3
			c-2.9,2.8-5.6,4.8-8.2,5.9c-2.6,1.1-5.5,1.6-8.8,1.6c-6.1,0-11.1-1.9-14.9-5.8s-5.8-8.8-5.8-14.8c0-3.9,0.9-7.4,2.6-10.4
			c1.8-3,4.3-5.5,7.6-7.3s6.8-2.8,10.6-2.8c3.2,0,6.3,0.7,9.3,2C296.3,319.4,298.8,321.4,301,323.9z"/>
		<path class="st0" d="M321.7,317h7.6v14.8h13.1V317h7.5v39.1h-7.5V339h-13.1v17.2h-7.6V317z"/>
		<path class="st0" d="M372.4,317h7.4v39.1h-7.4V317z"/>
		<path class="st0" d="M402.4,317h7.1l16.8,25.8V317h7.5v39.1h-7.2l-16.7-25.7v25.7h-7.5V317z"/>
		<path class="st0" d="M493,323.4l-5.2,5.2c-3.3-3.5-7.2-5.3-11.6-5.3c-3.9,0-7.1,1.3-9.7,3.8c-2.6,2.6-3.9,5.7-3.9,9.3
			c0,3.8,1.4,7,4,9.6c2.7,2.6,6,3.9,10,3.9c2.6,0,4.7-0.5,6.5-1.6s3.2-2.8,4.3-5.1H476v-7h19.7l0.1,1.6c0,3.4-0.9,6.7-2.7,9.7
			c-1.8,3.1-4.1,5.4-6.9,7c-2.8,1.6-6.1,2.4-9.9,2.4c-4.1,0-7.7-0.9-10.9-2.6c-3.2-1.8-5.7-4.3-7.6-7.5c-1.9-3.3-2.8-6.8-2.8-10.6
			c0-5.2,1.7-9.7,5.1-13.5c4.1-4.6,9.4-6.8,15.9-6.8c3.4,0,6.6,0.6,9.6,1.9C488.2,319,490.6,320.8,493,323.4z"/>
	</g>
	<g>
		<g>
			<path class="st1" d="M80.5,199.6v18.1H52.8V298H30v-80.3H2.3v-18.1H80.5z"/>
			<path class="st1" d="M190.9,298h-17.7c-2,0-3.6-0.5-4.9-1.4c-1.3-0.9-2.2-2.1-2.7-3.5l-5.8-17.1h-37.4l-5.8,17.1
				c-0.4,1.3-1.3,2.4-2.6,3.4c-1.3,1-2.9,1.5-4.8,1.5H91.4l38.1-98.3h23.4L190.9,298z M127.7,260.4h26.9l-9-26.9
				c-0.6-1.7-1.3-3.7-2.1-6c-0.8-2.3-1.6-4.8-2.3-7.5c-0.7,2.7-1.5,5.3-2.2,7.6c-0.8,2.3-1.5,4.4-2.2,6.1L127.7,260.4z"/>
			<path class="st1" d="M241.9,265.1V298h-22.8v-98.3h34.7c6.9,0,12.9,0.8,17.9,2.5c5,1.6,9.1,3.9,12.3,6.8
				c3.2,2.9,5.6,6.3,7.1,10.2c1.5,3.9,2.3,8.1,2.3,12.7c0,4.9-0.8,9.4-2.4,13.5c-1.6,4.1-4,7.6-7.2,10.5s-7.3,5.2-12.3,6.9
				c-5,1.6-10.9,2.5-17.7,2.5L241.9,265.1L241.9,265.1z M241.9,247.9h11.9c5.9,0,10.2-1.4,12.8-4.3c2.6-2.8,3.9-6.8,3.9-11.9
				c0-2.2-0.3-4.3-1-6.1c-0.7-1.8-1.7-3.4-3.1-4.8c-1.4-1.3-3.1-2.4-5.2-3.1c-2.1-0.7-4.6-1.1-7.5-1.1h-11.9V247.9z"/>
			<path class="st1" d="M405.6,298h-17.7c-2,0-3.6-0.5-4.9-1.4c-1.3-0.9-2.2-2.1-2.7-3.5l-5.8-17.1h-37.4l-5.8,17.1
				c-0.5,1.3-1.3,2.4-2.6,3.4c-1.3,1-2.9,1.5-4.8,1.5h-17.8l38.1-98.3h23.4L405.6,298z M342.4,260.4h26.9l-9-26.9
				c-0.6-1.7-1.3-3.7-2.1-6c-0.8-2.3-1.6-4.8-2.3-7.5c-0.7,2.7-1.5,5.3-2.2,7.6s-1.5,4.4-2.2,6.1L342.4,260.4z"/>
			<path class="st1" d="M488.6,219.6c-0.7,1.1-1.4,1.9-2.1,2.4c-0.7,0.5-1.7,0.8-2.9,0.8c-1,0-2.1-0.3-3.3-1c-1.2-0.6-2.5-1.4-4-2.2
				c-1.5-0.8-3.2-1.5-5.2-2.2c-1.9-0.7-4.1-1-6.6-1c-4.3,0-7.5,0.9-9.6,2.7c-2.1,1.8-3.1,4.3-3.1,7.4c0,2,0.6,3.6,1.9,4.9
				s2.9,2.4,5,3.4s4.4,1.8,7,2.6c2.6,0.8,5.3,1.7,8.1,2.6c2.7,1,5.4,2.1,8.1,3.4c2.6,1.3,5,3,7,5c2,2,3.7,4.5,5,7.4
				s1.9,6.4,1.9,10.5c0,4.5-0.8,8.8-2.4,12.8c-1.6,4-3.9,7.4-6.9,10.4s-6.7,5.3-11.1,7s-9.4,2.5-15,2.5c-3.1,0-6.2-0.3-9.3-0.9
				c-3.2-0.6-6.2-1.5-9.2-2.7c-3-1.1-5.8-2.5-8.4-4.1c-2.6-1.6-4.9-3.3-6.8-5.3l6.8-10.7c0.5-0.8,1.2-1.5,2.1-2
				c0.9-0.5,1.9-0.7,2.9-0.7c1.4,0,2.7,0.4,4.1,1.3c1.4,0.9,2.9,1.8,4.7,2.8c1.7,1,3.7,2,6,2.8c2.2,0.9,4.9,1.3,8,1.3
				c4.1,0,7.4-0.9,9.7-2.7s3.4-4.7,3.4-8.7c0-2.3-0.6-4.2-1.9-5.6c-1.3-1.4-2.9-2.6-5-3.6c-2-0.9-4.4-1.8-7-2.5
				c-2.6-0.7-5.3-1.5-8-2.4c-2.7-0.9-5.4-2-8-3.2c-2.6-1.3-4.9-3-7-5.1c-2-2.1-3.7-4.7-5-7.8c-1.3-3.1-1.9-7-1.9-11.6
				c0-3.7,0.7-7.3,2.2-10.8s3.7-6.6,6.5-9.4c2.9-2.7,6.4-4.9,10.6-6.6c4.2-1.6,9-2.5,14.4-2.5c3,0,6,0.2,8.8,0.7
				c2.9,0.5,5.6,1.2,8.1,2.1c2.6,0.9,5,2,7.2,3.3c2.2,1.3,4.2,2.7,6,4.4L488.6,219.6z"/>
		</g>
	</g>
	<g>
		<g>
			<g>
				<path class="st1" d="M487,33.8C487,33.8,487,33.8,487,33.8c-1.6-0.7-3.3-0.8-5-0.2c-1.6,0.6-3,1.8-3.7,3.4l-21.5,89.9
					c-0.8,2.7-0.1,5.2,2.3,6.4c10.1,4.7,26,14.7,32,32.4l36-79.8c0.5-1.1,0.7-2.3,0.6-3.4C524.5,55.3,500.8,40.3,487,33.8z"/>
			</g>
		</g>
		<g>
			<g>
				<path class="st1" d="M549.6,170.2l55.5-74c0.7-1.6,0.8-3.4,0.2-5c-0.6-1.6-1.8-2.9-3.3-3.7l0,0c-13.9-6.4-40.5-15-63.4,0
					c-0.9,0.6-1.7,1.5-2.2,2.6l-38.5,78.7c17.4-6.8,35.3-1,45.4,3.7C545.6,173.6,548.1,172.4,549.6,170.2z"/>
			</g>
		</g>
		<g>
			<g>
				<path class="st1" d="M611.8,116.8l-4.3-2l-51.2,58.3c-4.7,5.3-10.1,8.7-16.2,5.9c-8.6-4-23.5-8.9-37.9-4.1
					c19.3,3.8,36.2,15.1,45.5,22.3c1.2,0.9,2.7,1.2,4.1,0.9c1.3-0.3,2.1-1.4,3.2-2.6l60-70C617.1,122.9,615.1,118.3,611.8,116.8z"/>
			</g>
		</g>
		<g>
			<g>
				<path class="st1" d="M450.1,123.7l12.2-76.5l-4.3-2c-3.3-1.5-8.2,0.2-8.7,3.2l-15.6,90.7c-0.3,1.5-0.4,3.1,0,4.1
					c0.7,1.3,1.8,2.2,3.3,2.6c11.5,2.5,31,8.2,46.4,20.5c-5.6-14.1-18.9-22.4-27.5-26.4C449.9,137.1,449,130.4,450.1,123.7z"/>
			</g>
		</g>
	</g>
	<g>
		<path class="st2" d="M576.1,71.7c-12.8-1.5-27.2-0.1-40.7,8.3c-2.3-15.6-10.2-27.4-19.5-36.2c8.6-14.6,27.1-20.6,42.8-13.3
			C574.4,37.8,581.7,55.7,576.1,71.7z"/>
	</g>
	<g>
		<path class="st2" d="M575.7,35.9c-1.1,0-2.2-0.4-3-1.3c-1.5-1.6-1.4-4.2,0.2-5.7l8.9-8.1c1.6-1.5,4.2-1.4,5.7,0.2
			c1.5,1.6,1.4,4.2-0.2,5.7l-8.9,8.1C577.6,35.6,576.7,35.9,575.7,35.9z"/>
	</g>
	<g>
		<path class="st2" d="M516.3,33.2c-1.1,0-2.2-0.4-2.9-1.3l-8.1-8.8c-1.5-1.6-1.4-4.2,0.2-5.7c1.6-1.5,4.2-1.4,5.7,0.2l8.1,8.8
			c1.5,1.6,1.4,4.2-0.2,5.7C518.2,32.9,517.3,33.2,516.3,33.2z"/>
	</g>
	<g>
		<path class="st2" d="M546.6,22.3c-0.1,0-0.1,0-0.2,0c-2.2-0.1-3.9-2-3.8-4.2l0.5-12c0.1-2.2,2-3.9,4.2-3.8c2.2,0.1,3.9,2,3.8,4.2
			l-0.5,12C550.5,20.6,548.7,22.3,546.6,22.3z"/>
	</g>
	<g>
		<path class="st2" d="M598.7,66.7c-0.1,0-0.1,0-0.2,0l-11.9-0.6c-2.2-0.1-3.9-2-3.8-4.2c0.1-2.2,2-3.9,4.2-3.8l11.9,0.6
			c2.2,0.1,3.9,2,3.8,4.2C602.6,65,600.8,66.7,598.7,66.7z"/>
	</g>
</g>
<g id="Layer_4" class="st3">
	<g class="st4">
		<path class="st2" d="M-1498.3-50.3c2.1-0.9,2.5-3.1,1.6-5.2l-4.1-9.5c-0.9-2.1-2.7-3.3-4.8-2.4c-2.1,0.9-2.5,3.1-1.6,5.2l4.1,9.5
			C-1502.2-50.7-1500.4-49.4-1498.3-50.3z"/>
		<path class="st2" d="M-1463.2-51.8c1-0.4,1.8-1.2,2.2-2.3l3.8-9.6c0.8-2.1-0.2-4.5-2.3-5.4c-2.1-0.8-4.5,0.2-5.4,2.3l-3.8,9.6
			c-0.9,2.1,0.2,4.5,2.3,5.4C-1465.3-51.3-1464.1-51.4-1463.2-51.8z"/>
		<path class="st2" d="M-1433.1-41.4l-9.5,4.1c-2.1,0.9-2.5,4.6-1.6,6.7c0.9,2.1,3.9,4.3,6,3.4l9.5-4.1c2.1-0.9,2.5-4.6,1.6-6.7
			C-1428-40.1-1431-42.3-1433.1-41.4z"/>
		<path class="st2" d="M-1522.8-27.5c1.1,0.4,2.2,0.4,3.2,0c1-0.4,1.8-1.2,2.2-2.3c0.8-2.1-0.2-4.5-2.3-5.4l-9.6-3.8
			c-2.1-0.8-4.5,0.2-5.4,2.3c-0.8,2.1,0.2,4.5,2.3,5.4L-1522.8-27.5z"/>
		<path class="st2" d="M-1449.6-29.1c1.2,2.8,2,5.6,2.4,8.4c-2.4,0.8-4.9,1.7-7.4,2.7c-11.4,4.9-20.4,12.2-26.9,21.8
			c-8.5-13-20.6-20.4-32.5-24.5c1.6-11.2,8.9-21.4,20.1-26.2C-1476.8-54.2-1457-46.3-1449.6-29.1z"/>
	</g>
</g>
</svg>
